<svg xmlns="http://www.w3.org/2000/svg" version="1.1" xmlns:xlink="http://www.w3.org/1999/xlink" width="180" height="180" x="0" y="0" viewBox="0 0 512 512" style="enable-background:new 0 0 512 512" xml:space="preserve" class=""><g><g data-name="Layer 2"><circle cx="256" cy="256" r="256" fill="#FF6347" opacity="1" data-original="#ff2147" class=""></circle><g fill="#FFFFFF"><path d="M235.75 121.27h-.08a12.92 12.92 0 0 0-12.92 12.92v70.14a25.72 25.72 0 0 1-.92 7.38c-1.63 5.32-6.32 8.38-12.21 8v-85.5a12.92 12.92 0 0 0-25.84 0v85.66c-7.31-.11-12.27-4.69-12.76-11.46-.28-3.95-.13-7.94-.13-11.92 0-20.69-.06-41.38 0-62.07a13.07 13.07 0 0 0-13.07-13.13 13.08 13.08 0 0 0-13.08 13.06c0 25-.21 50 .26 75 .36 18.74 15 34.45 33 36.43a11.94 11.94 0 0 1 2.86.61v134A15.56 15.56 0 0 0 196.35 396h.27a13.47 13.47 0 0 0 2.79-.3 15.57 15.57 0 0 0 12.51-15.26V246.91c1.1-.47 6.71-1.5 7.41-1.69 17.64-4.63 29.19-19.49 29.3-38.35.13-24.23.07-48.46 0-72.69a12.92 12.92 0 0 0-12.88-12.91zM366.92 178.36c-.55-22.54-11.55-40-30.53-52.32-12.63-8.19-26.76-10.12-41.42-10-5.82 0-5.84-.13-5.84 5.71V382.91A13.09 13.09 0 0 0 302.2 396a13.11 13.11 0 0 0 13.1-13.16c-.08-24 0-48-.11-72 0-3.28 1.1-5 4-6.38 14.93-7.32 29.74-14.86 44.65-22.24 2.17-1.08 3.42-2.25 3.41-5-.11-32.92.47-65.9-.33-98.86z" fill="#FFFFFF" opacity="1" data-original="#ffffff" class=""></path></g></g></g></svg>